<svg width="1194" height="834" viewBox="0 0 1194 834" fill="none" xmlns="http://www.w3.org/2000/svg">
<path d="M321.345 30.1267C323.217 27.3819 325.61 25.1113 328.361 23.4704C331.111 21.8295 334.154 20.8571 337.28 20.6197C335.713 25.2649 335.579 30.2664 338.195 34.7091C343.243 43.2731 353.958 40.6117 356.645 31.4469C358.679 24.5035 355.41 18.7755 350.465 15.3038C352.736 13.2277 355.386 11.7015 358.237 10.8261C361.089 9.95066 364.078 9.74596 367.008 10.2255C372.222 11.0847 373.194 2.20632 367.987 1.35411C363.202 0.557657 358.31 1.1099 353.775 2.95842C349.241 4.80693 345.215 7.89036 342.078 11.9159C331.67 10.3093 321.006 15.7299 314.762 24.8109C311.596 29.4072 318.166 34.737 321.345 30.1267ZM345.514 22.2193C346.774 22.8686 347.836 23.902 348.571 25.1951C349.448 26.8436 349.262 30.3293 347.292 31.0488C344.65 32.0127 344.24 27.151 344.541 25.4605C344.745 24.3413 345.071 23.2531 345.514 22.2193Z" fill="#E57E5E"/>
<path d="M226.539 48.639C225.033 48.6335 223.563 48.1409 222.313 47.2234C221.063 46.3059 220.091 45.0046 219.518 43.4839C218.945 41.9632 218.798 40.2914 219.095 38.6794C219.392 37.0674 220.119 35.5876 221.186 34.4269C222.253 33.2662 223.61 32.4766 225.087 32.1578C226.565 31.8391 228.095 32.0055 229.486 32.636C230.877 33.2665 232.065 34.3328 232.901 35.7003C233.737 37.0678 234.183 38.6752 234.183 40.3195C234.183 41.4141 233.984 42.4978 233.599 43.5086C233.215 44.5194 232.651 45.4374 231.941 46.2101C231.231 46.9829 230.388 47.5951 229.461 48.0119C228.534 48.4287 227.541 48.6418 226.539 48.639ZM226.539 33.9698C225.382 33.9684 224.251 34.3417 223.289 35.0424C222.326 35.7431 221.576 36.7398 221.132 37.9063C220.689 39.0728 220.572 40.3567 220.797 41.5957C221.022 42.8346 221.578 43.9729 222.396 44.8665C223.213 45.7601 224.255 46.3689 225.389 46.6158C226.524 46.8627 227.7 46.7367 228.769 46.2537C229.837 45.7706 230.751 44.9523 231.394 43.9022C232.036 42.8521 232.379 41.6175 232.379 40.3544C232.383 39.5139 232.234 38.6809 231.942 37.9031C231.651 37.1253 231.221 36.418 230.679 35.8218C230.136 35.2255 229.491 34.7519 228.781 34.4281C228.07 34.1043 227.309 33.9367 226.539 33.9349V33.9698Z" fill="#070706"/>
<path d="M1193.7 0H0V834H1193.7V0Z" fill="#F8D1E0"/>
<path opacity="0.5" d="M-35.9925 120.49C-9.74225 135.493 13.0019 155.928 30.7189 180.428C47.8869 204.206 59.779 237.992 42.867 261.953C27.8519 283.531 -2.0352 286.739 -28.1087 290.082C-64.621 294.823 -102.724 304.97 -127.911 331.844C-153.098 358.718 -158.425 406.583 -130.458 430.77C-106.201 451.683 -70.1193 446.754 -38.2428 442.89C-6.36624 439.026 31.6677 439.626 49.8784 465.815C59.5376 479.763 60.9912 498.114 57.7199 514.769C49.9024 554.748 9.16175 589.385 -30.2734 579.192C-42.5043 576.015 -54.5731 567.64 -57.2014 555.22C-61.5928 534.508 -37.1381 518.08 -15.9313 518.544C10.5412 519.173 35.1277 535.707 49.9031 557.79C64.6785 579.873 70.7229 606.776 72.3232 633.28C75.4854 688.802 60.6143 743.859 29.9281 790.239" stroke="white" stroke-width="4.63276" stroke-linecap="round" stroke-linejoin="round" stroke-dasharray="4.59 12.28"/>
<path opacity="0.5" d="M1169.31 40.4313C1140.48 60.5815 1116.29 86.6545 1098.35 116.907C1080.97 146.264 1070.76 186.658 1092.88 212.632C1112.55 236.044 1147.52 236.607 1178.07 237.728C1220.87 239.367 1266.08 247.1 1298.1 275.575C1330.11 304.049 1341.33 358.935 1311.49 389.907C1285.59 416.694 1243.27 414.792 1205.94 413.679C1168.6 412.567 1124.61 417.275 1106.27 449.537C1096.56 466.713 1096.81 488.125 1102.36 507.074C1115.63 552.563 1166.48 588.39 1211.09 572.419C1224.93 567.448 1238.02 556.472 1239.76 541.807C1242.66 517.35 1212.59 500.899 1188.08 503.675C1157.48 507.198 1130.74 528.946 1115.95 556.088C1101.17 583.229 1097 615.033 1097.95 645.905C1100.14 710.558 1123.18 772.77 1163.62 823.26" stroke="white" stroke-width="4.63276" stroke-linecap="round" stroke-linejoin="round" stroke-dasharray="4.59 12.28"/>
<path d="M1109 70H84C72.9543 70 64 78.9543 64 90V744C64 755.046 72.9543 764 84 764H1109C1120.05 764 1129 755.046 1129 744V90C1129 78.9543 1120.05 70 1109 70Z" fill="#F7F9FE"/>
</svg>
