<svg width="1064" height="48" viewBox="0 0 1064 48" fill="none" xmlns="http://www.w3.org/2000/svg">
<g clip-path="url(#clip0_0_1082)">
<path d="M590.862 46.9578C589.589 46.9556 588.368 46.4548 587.468 45.5653C586.568 44.6757 586.061 43.4698 586.059 42.2117V8.79236C586.056 7.95875 586.276 7.13925 586.697 6.41671C587.118 5.69418 587.724 5.09424 588.455 4.67759C589.186 4.26095 590.015 4.04237 590.858 4.04395C591.702 4.04554 592.53 4.26722 593.259 4.68661L622.548 21.3984C623.277 21.8141 623.883 22.4122 624.304 23.1326C624.725 23.853 624.947 24.6702 624.947 25.502C624.947 26.3339 624.725 27.1511 624.304 27.8715C623.883 28.5918 623.277 29.19 622.548 29.6057L593.259 46.3175C592.532 46.7338 591.707 46.9546 590.866 46.9578H590.862Z" fill="#AA1070"/>
<path d="M594.076 42C592.995 41.9983 591.96 41.6132 591.196 40.9292C590.432 40.2451 590.002 39.3178 590 38.3503V12.6514C589.998 12.0104 590.185 11.3802 590.542 10.8246C590.899 10.269 591.413 9.80766 592.033 9.48726C592.653 9.16687 593.357 8.99879 594.073 9.00001C594.789 9.00122 595.492 9.1717 596.11 9.4942L620.965 22.3453C621.583 22.6649 622.097 23.1249 622.455 23.6788C622.812 24.2328 623 24.8612 623 25.5009C623 26.1406 622.812 26.769 622.455 27.3229C622.097 27.8769 621.583 28.3368 620.965 28.6565L596.11 41.5076C595.493 41.8278 594.793 41.9975 594.08 42H594.076Z" fill="#CD3F97"/>
<path d="M590.862 5.09263C591.517 5.09471 592.16 5.26796 592.725 5.59485L622.014 22.2941C622.582 22.6185 623.054 23.085 623.382 23.6467C623.71 24.2083 623.883 24.8453 623.883 25.4937C623.883 26.1421 623.71 26.7792 623.382 27.3408C623.054 27.9024 622.582 28.3689 622.014 28.6933L592.725 45.4009C592.158 45.7287 591.513 45.9023 590.855 45.9041C590.198 45.9059 589.551 45.7358 588.982 45.4111C588.413 45.0864 587.94 44.6187 587.613 44.0553C587.285 43.492 587.114 42.853 587.118 42.2034V8.7924C587.118 7.81115 587.512 6.87011 588.214 6.17627C588.916 5.48243 589.869 5.09263 590.862 5.09263ZM590.862 3C589.308 3.00221 587.818 3.61318 586.719 4.69899C585.62 5.7848 585.002 7.25683 585 8.7924V42.2118C584.994 43.2298 585.261 44.2312 585.774 45.1144C586.286 45.9976 587.026 46.7313 587.918 47.2411C588.809 47.751 589.822 48.0189 590.852 48.0176C591.882 48.0164 592.894 47.7461 593.784 47.2341L623.073 30.5265C623.963 30.0183 624.702 29.2877 625.216 28.408C625.73 27.5282 626 26.5304 626 25.5146C626 24.4989 625.73 23.501 625.216 22.6213C624.702 21.7416 623.963 21.0109 623.073 20.5028L593.784 3.79519C592.896 3.28572 591.889 3.01582 590.862 3.01254V3Z" fill="#F8EBFD"/>
<path style="mix-blend-mode:screen" fill-rule="evenodd" clip-rule="evenodd" d="M595.5 10.9999C597.5 11.9999 600 13.759 601.64 14.678C604 15.9999 606.814 17.6925 608.5 17.5C610.769 16.8706 606.588 15.6275 605 14.5C603.069 13.096 600.914 11.6993 598.5 11C596.5 9.49995 593.248 8.75924 595.5 10.9999Z" fill="url(#paint0_radial_0_1082)"/>
</g>
<g clip-path="url(#clip1_0_1082)">
<path d="M482.138 46.9578C483.411 46.9556 484.632 46.4548 485.532 45.5653C486.432 44.6757 486.939 43.4698 486.941 42.2117V8.79236C486.944 7.95875 486.724 7.13925 486.303 6.41671C485.882 5.69418 485.276 5.09424 484.545 4.67759C483.814 4.26095 482.985 4.04237 482.142 4.04395C481.298 4.04554 480.47 4.26722 479.741 4.68661L450.452 21.3984C449.723 21.8141 449.117 22.4122 448.696 23.1326C448.275 23.853 448.053 24.6702 448.053 25.502C448.053 26.3339 448.275 27.1511 448.696 27.8715C449.117 28.5918 449.723 29.19 450.452 29.6057L479.741 46.3175C480.468 46.7338 481.293 46.9546 482.134 46.9578H482.138Z" fill="#AA1070"/>
<path d="M478.924 42C480.005 41.9983 481.04 41.6132 481.804 40.9292C482.568 40.2451 482.998 39.3178 483 38.3503V12.6514C483.002 12.0104 482.815 11.3802 482.458 10.8246C482.101 10.269 481.587 9.80766 480.967 9.48726C480.347 9.16687 479.643 8.99879 478.927 9.00001C478.211 9.00122 477.508 9.1717 476.89 9.4942L452.035 22.3453C451.417 22.6649 450.903 23.1249 450.545 23.6788C450.188 24.2328 450 24.8612 450 25.5009C450 26.1406 450.188 26.769 450.545 27.3229C450.903 27.8769 451.417 28.3368 452.035 28.6565L476.89 41.5076C477.507 41.8278 478.207 41.9975 478.92 42H478.924Z" fill="#CD3F97"/>
<path d="M482.138 5.09263C481.483 5.09471 480.84 5.26796 480.275 5.59485L450.986 22.2941C450.418 22.6185 449.946 23.085 449.618 23.6467C449.29 24.2083 449.117 24.8453 449.117 25.4937C449.117 26.1421 449.29 26.7792 449.618 27.3408C449.946 27.9024 450.418 28.3689 450.986 28.6933L480.275 45.4009C480.842 45.7287 481.487 45.9023 482.145 45.9041C482.802 45.9059 483.449 45.7358 484.018 45.4111C484.587 45.0864 485.06 44.6187 485.387 44.0553C485.715 43.492 485.886 42.853 485.882 42.2034V8.7924C485.882 7.81115 485.488 6.87011 484.786 6.17627C484.084 5.48243 483.131 5.09263 482.138 5.09263ZM482.138 3C483.692 3.00221 485.182 3.61318 486.281 4.69899C487.38 5.7848 487.998 7.25683 488 8.7924V42.2118C488.006 43.2298 487.739 44.2312 487.226 45.1144C486.714 45.9976 485.974 46.7313 485.082 47.2411C484.191 47.751 483.178 48.0189 482.148 48.0176C481.118 48.0164 480.106 47.7461 479.216 47.2341L449.927 30.5265C449.037 30.0183 448.298 29.2877 447.784 28.408C447.27 27.5282 447 26.5304 447 25.5146C447 24.4989 447.27 23.501 447.784 22.6213C448.298 21.7416 449.037 21.0109 449.927 20.5028L479.216 3.79519C480.104 3.28572 481.111 3.01582 482.138 3.01254V3Z" fill="#F8EBFD"/>
<g style="mix-blend-mode:screen">
<path fill-rule="evenodd" clip-rule="evenodd" d="M477.5 10.9999C475.5 11.9999 473 13.759 471.36 14.678C469 15.9999 466.186 17.6925 464.5 17.5C462.231 16.8706 466.412 15.6275 468 14.5C469.931 13.096 472.086 11.6993 474.5 11C476.5 9.49995 479.752 8.75924 477.5 10.9999Z" fill="#CD3F97"/>
</g>
</g>
<rect x="499" y="7" width="75" height="37" rx="8" fill="#AA1070" stroke="#F8EBFD" stroke-width="2"/>
<rect x="500" y="8" width="73" height="34" rx="8" fill="#CD3F97"/>
<path d="M521.975 31.4926C521.975 31.1866 522.027 30.9196 522.131 30.6918C522.235 30.4639 522.362 30.2523 522.512 30.057C522.661 29.8552 522.818 29.6631 522.98 29.4808C523.143 29.292 523.286 29.0902 523.41 28.8754C523.579 28.5694 523.775 28.2243 523.996 27.8402C524.224 27.4561 524.455 27.0524 524.689 26.6293C524.924 26.1996 525.155 25.7666 525.383 25.3304C525.611 24.8877 525.812 24.4613 525.988 24.0511C526.164 23.641 526.307 23.2569 526.418 22.8988C526.529 22.5407 526.584 22.2282 526.584 21.9613C526.584 21.6683 526.525 21.4177 526.408 21.2094C526.291 21.001 526.138 20.835 525.949 20.7113C525.767 20.5811 525.562 20.4867 525.334 20.4281C525.106 20.3695 524.878 20.3402 524.65 20.3402C524.227 20.3402 523.85 20.3825 523.518 20.4672C523.186 20.5453 522.935 20.6788 522.766 20.8676C522.681 20.9587 522.606 21.0857 522.541 21.2484C522.476 21.4047 522.404 21.5609 522.326 21.7172C522.255 21.8669 522.17 22.0004 522.072 22.1176C521.975 22.2282 521.854 22.2836 521.711 22.2836C521.561 22.2836 521.438 22.238 521.34 22.1469C521.249 22.0492 521.177 21.9418 521.125 21.8246C521.073 21.7009 521.037 21.5804 521.018 21.4633C520.998 21.3396 520.988 21.2517 520.988 21.1996C520.988 20.9913 521.021 20.8024 521.086 20.6332C521.151 20.4574 521.236 20.2946 521.34 20.1449C521.451 19.9952 521.577 19.8552 521.721 19.725C521.864 19.5883 522.014 19.4548 522.17 19.3246C522.359 19.1683 522.554 19.0446 522.756 18.9535C522.958 18.8623 523.166 18.794 523.381 18.7484C523.602 18.6963 523.827 18.6638 524.055 18.6508C524.283 18.6377 524.514 18.6312 524.748 18.6312C525.171 18.6312 525.598 18.6996 526.027 18.8363C526.464 18.973 526.857 19.1683 527.209 19.4222C527.561 19.6761 527.847 19.9854 528.068 20.35C528.296 20.7146 528.41 21.1247 528.41 21.5804C528.41 22.1403 528.335 22.7002 528.186 23.2601C528.042 23.8135 527.85 24.3636 527.609 24.9105C527.368 25.4509 527.095 25.9847 526.789 26.5121C526.49 27.0394 526.184 27.557 525.871 28.0648C525.734 28.2862 525.604 28.4913 525.48 28.6801C525.363 28.8623 525.249 29.0414 525.139 29.2172C525.035 29.3929 524.934 29.572 524.836 29.7543C524.738 29.9366 524.647 30.1384 524.562 30.3597C524.628 30.3728 524.709 30.3825 524.807 30.389C524.904 30.3955 525.008 30.3988 525.119 30.3988C525.236 30.3988 525.419 30.3923 525.666 30.3793C525.913 30.3663 526.184 30.35 526.477 30.3304C526.776 30.3044 527.072 30.2719 527.365 30.2328C527.665 30.1937 527.922 30.1482 528.137 30.0961C528.234 30.07 528.358 30.0245 528.508 29.9594C528.658 29.8877 528.817 29.8519 528.986 29.8519C529.104 29.8519 529.224 29.8975 529.348 29.9886C529.478 30.0798 529.592 30.1872 529.689 30.3109C529.794 30.4346 529.878 30.5648 529.943 30.7015C530.015 30.8383 530.051 30.9489 530.051 31.0336C530.051 31.1768 530.005 31.3038 529.914 31.4144C529.829 31.5186 529.729 31.6097 529.611 31.6879C529.494 31.7595 529.374 31.8181 529.25 31.8636C529.126 31.9027 529.025 31.932 528.947 31.9515C528.895 31.9646 528.84 31.9743 528.781 31.9808C528.723 31.9808 528.667 31.9808 528.615 31.9808C528.433 31.9808 528.251 31.9678 528.068 31.9418C527.893 31.9092 527.714 31.8929 527.531 31.8929C527.16 31.8929 526.773 31.906 526.369 31.932C525.972 31.958 525.565 31.9841 525.148 32.0101C524.732 32.0427 524.315 32.072 523.898 32.098C523.482 32.1241 523.068 32.1371 522.658 32.1371C522.58 32.1371 522.499 32.111 522.414 32.059C522.336 32.0134 522.264 31.958 522.199 31.8929C522.134 31.8213 522.079 31.7497 522.033 31.6781C521.994 31.6 521.975 31.5381 521.975 31.4926Z" fill="white"/>
<rect x="547" y="8" width="1" height="35" rx="0.5" fill="#ED75C0"/>
<rect x="548" y="8" width="1" height="35" rx="0.5" fill="#AA1070"/>
<path d="M560.027 27.008C560.058 26.9615 560.093 26.9173 560.132 26.8759C561.479 25.639 562.826 24.4029 564.175 23.1674C564.3 23.053 564.436 22.9804 564.616 23.0047C564.695 23.0162 564.769 23.0463 564.831 23.0921C564.892 23.1378 564.94 23.1976 564.969 23.2654C564.998 23.3333 565.007 23.4069 564.995 23.4789C564.983 23.5509 564.951 23.6188 564.902 23.6759C564.868 23.7127 564.832 23.7475 564.794 23.7802L560.396 27.8082C560.116 28.0649 559.887 28.0638 559.605 27.8058C558.132 26.4567 556.659 25.1079 555.185 23.7593C555.056 23.6418 554.975 23.5131 555.007 23.342C555.021 23.2714 555.055 23.2054 555.105 23.1502C555.155 23.0951 555.22 23.0527 555.293 23.0273C555.367 23.0018 555.446 22.994 555.523 23.0047C555.601 23.0155 555.674 23.0443 555.736 23.0885C555.779 23.1222 555.82 23.1582 555.859 23.1963L559.886 26.886C559.922 26.919 559.96 26.9503 560.027 27.008Z" fill="white"/>
<circle cx="24" cy="24" r="22.5" fill="#AA1070" stroke="#F8EBFD" stroke-width="3"/>
<circle cx="24" cy="24" r="20.3636" fill="#CD3F97"/>
<path d="M14.1962 7.57916C17.7048 5.0985 20.3274 5.06952 21.2001 5.36511C14.0696 7.95319 13.1768 11.8201 12.6761 12.0675C10.8707 12.9593 9.81055 10.68 14.1962 7.57916Z" fill="white"/>
<ellipse cx="23.0468" cy="4.6018" rx="1" ry="0.5" transform="rotate(-6.00198 23.0468 4.6018)" fill="white"/>
<path d="M27.7521 26.6951C28.3484 26.6953 28.9201 26.9324 29.3417 27.3542C29.7633 27.7759 30.0001 28.3478 30.0001 28.9441V29.8621C30.0005 30.4358 29.8214 30.9952 29.4881 31.4621C27.9421 33.6251 25.4171 34.6951 21.9971 34.6951C18.5751 34.6951 16.0521 33.6231 14.5101 31.4591C14.1782 30.9931 13.9999 30.4352 14.0001 29.8631V28.9431C14.0002 28.6477 14.0585 28.3553 14.1716 28.0825C14.2848 27.8097 14.4506 27.5618 14.6595 27.3531C14.8684 27.1443 15.1164 26.9788 15.3893 26.8659C15.6622 26.753 15.9547 26.695 16.2501 26.6951H27.7521ZM32.0521 13.0991C32.2247 13.0005 32.4295 12.9745 32.6213 13.0268C32.8132 13.0791 32.9764 13.2055 33.0751 13.3781C34.1741 15.3018 34.7505 17.4796 34.7471 19.6951C34.7471 21.9491 34.1611 24.1191 33.0641 26.0311C33.0162 26.1186 32.9513 26.1956 32.8733 26.2578C32.7952 26.3199 32.7056 26.3658 32.6096 26.3929C32.5136 26.4199 32.4132 26.4275 32.3142 26.4153C32.2152 26.4031 32.1196 26.3712 32.0331 26.3216C31.9466 26.272 31.8708 26.2056 31.8102 26.1264C31.7497 26.0471 31.7055 25.9566 31.6804 25.8601C31.6552 25.7635 31.6496 25.663 31.6638 25.5642C31.678 25.4655 31.7117 25.3706 31.7631 25.2851C32.7389 23.5839 33.2506 21.6562 33.2471 19.6951C33.2471 17.7121 32.7341 15.8051 31.7721 14.1221C31.6735 13.9493 31.6477 13.7444 31.7002 13.5526C31.7527 13.3607 31.8793 13.1976 32.0521 13.0991ZM21.9971 14.6991C23.3231 14.6991 24.5949 15.2259 25.5326 16.1635C26.4703 17.1012 26.9971 18.373 26.9971 19.6991C26.9971 21.0252 26.4703 22.2969 25.5326 23.2346C24.5949 24.1723 23.3231 24.6991 21.9971 24.6991C20.671 24.6991 19.3992 24.1723 18.4615 23.2346C17.5238 22.2969 16.9971 21.0252 16.9971 19.6991C16.9971 18.373 17.5238 17.1012 18.4615 16.1635C19.3992 15.2259 20.671 14.6991 21.9971 14.6991ZM28.5861 15.0951C28.7589 14.9966 28.9637 14.9707 29.1555 15.0232C29.3474 15.0757 29.5105 15.2023 29.6091 15.3751C30.3574 16.6917 30.7496 18.1807 30.7471 19.6951C30.7492 21.2126 30.3552 22.7045 29.6041 24.0231C29.5553 24.1087 29.4901 24.1839 29.4123 24.2443C29.3344 24.3047 29.2454 24.3493 29.1504 24.3753C29.0554 24.4014 28.9561 24.4084 28.8583 24.3961C28.7606 24.3838 28.6662 24.3524 28.5806 24.3036C28.4949 24.2548 28.4198 24.1896 28.3593 24.1118C28.2989 24.0339 28.2544 23.945 28.2283 23.8499C28.2023 23.7549 28.1952 23.6556 28.2075 23.5579C28.2198 23.4601 28.2513 23.3657 28.3001 23.2801C28.9227 22.188 29.2492 20.9522 29.2471 19.6951C29.2495 18.4408 28.9248 17.2076 28.3051 16.1171C28.2069 15.9444 28.1812 15.7398 28.2337 15.5482C28.2862 15.3566 28.4135 15.1936 28.5861 15.0951Z" fill="white"/>
<circle cx="1040" cy="24" r="22.5" fill="#AA1070" stroke="#F8EBFD" stroke-width="3"/>
<circle cx="1040.36" cy="24.364" r="20.3636" fill="#CD3F97"/>
<path d="M1040 14.0004C1034.48 14.0004 1030 18.4804 1030 24.0004C1030 29.5204 1034.48 34.0004 1040 34.0004C1045.52 34.0004 1050 29.5204 1050 24.0004C1050 18.4804 1045.52 14.0004 1040 14.0004ZM1040 29.0004C1039.45 29.0004 1039 28.5504 1039 28.0004V24.0004C1039 23.4504 1039.45 23.0004 1040 23.0004C1040.55 23.0004 1041 23.4504 1041 24.0004V28.0004C1041 28.5504 1040.55 29.0004 1040 29.0004ZM1041 21.0004H1039V19.0004H1041V21.0004Z" fill="white"/>
<path d="M1030.2 7.57916C1033.7 5.0985 1036.33 5.06952 1037.2 5.36511C1030.07 7.95319 1029.18 11.8201 1028.68 12.0675C1026.87 12.9593 1025.81 10.68 1030.2 7.57916Z" fill="white"/>
<ellipse cx="1039.05" cy="4.6018" rx="1" ry="0.5" transform="rotate(-6.00198 1039.05 4.6018)" fill="white"/>
<defs>
<radialGradient id="paint0_radial_0_1082" cx="0" cy="0" r="1" gradientUnits="userSpaceOnUse" gradientTransform="translate(592.176 35.7473) rotate(69.595) scale(62.4708 72.8156)">
<stop stop-color="#FFFBD9"/>
<stop offset="1"/>
</radialGradient>
<clipPath id="clip0_0_1082">
<rect width="41" height="45" fill="white" transform="translate(585 3)"/>
</clipPath>
<clipPath id="clip1_0_1082">
<rect width="41" height="45" fill="white" transform="matrix(-1 0 0 1 488 3)"/>
</clipPath>
</defs>
</svg>
